<svg xmlns="http://www.w3.org/2000/svg" xmlns:xlink="http://www.w3.org/1999/xlink" width="135" zoomAndPan="magnify" viewBox="0 0 101.25 40.499999" height="54" preserveAspectRatio="xMidYMid meet" version="1.0"><defs><g/><clipPath id="0250489c4b"><path d="M 5.492188 1.074219 L 43.277344 1.074219 L 43.277344 38.859375 L 5.492188 38.859375 Z M 5.492188 1.074219 " clip-rule="nonzero"/></clipPath></defs><g clip-path="url(#0250489c4b)"><path stroke-linecap="butt" transform="matrix(0.0782916, 0, 0, 0.0782916, 5.492796, 1.074238)" fill-opacity="1" fill="#ffdf2b" fill-rule="nonzero" stroke-linejoin="miter" d="M 463.204348 147.585009 C 451.080204 118.896192 433.717234 93.151098 411.614372 71.048235 C 389.461616 48.945373 363.716521 31.582403 335.027705 19.408366 C 305.341016 6.885074 273.808265 0.498694 241.327535 0.498694 C 208.796912 0.498694 177.264161 6.885074 147.577472 19.408366 C 118.888656 31.532509 93.143561 48.89548 71.040699 71.048235 C 48.887944 93.151098 31.574866 118.896192 19.400829 147.585009 C 6.877537 177.271697 0.491157 208.804448 0.491157 241.285178 C 0.491157 273.815801 6.877537 305.348553 19.450723 335.035241 C 31.574866 363.724058 48.937837 389.469152 71.040699 411.572014 C 93.143561 433.72477 118.888656 451.087741 147.577472 463.211884 C 177.264161 475.735176 208.796912 482.121556 241.327535 482.121556 C 273.808265 482.121556 305.39091 475.735176 335.077598 463.211884 C 363.716521 451.087741 389.511509 433.72477 411.614372 411.572014 C 433.717234 389.469152 451.080204 363.724058 463.204348 335.035241 C 475.777533 305.348553 482.163913 273.815801 482.163913 241.285178 C 482.163913 208.804448 475.777533 177.271697 463.204348 147.585009 Z M 241.327535 476.433686 C 111.703978 476.433686 6.228921 370.958629 6.228921 241.285178 C 6.228921 111.661621 111.654085 6.186563 241.327535 6.186563 C 370.951092 6.186563 476.42615 111.661621 476.42615 241.285178 C 476.42615 370.958629 370.951092 476.433686 241.327535 476.433686 Z M 241.327535 476.433686 " stroke="#000000" stroke-width="1" stroke-opacity="1" stroke-miterlimit="10"/></g><path stroke-linecap="butt" transform="matrix(0.0782916, 0, 0, 0.0782916, 5.492796, 1.074238)" fill-opacity="1" fill="#ffdf2b" fill-rule="nonzero" stroke-linejoin="miter" d="M 303.095805 174.976592 L 303.345273 174.527549 L 302.796443 174.377869 C 301.748678 174.178294 300.651019 174.078507 299.603253 174.078507 C 294.114958 174.128401 289.275279 177.421378 288.127727 182.261056 L 288.027939 182.710099 L 288.476982 182.759992 C 294.414319 183.658077 299.852721 180.764249 303.095805 174.976592 Z M 299.902615 176.174038 C 296.50985 180.165525 292.219001 181.06361 290.622406 181.163397 C 293.416447 177.421378 298.106445 176.373612 299.902615 176.174038 Z M 299.902615 176.174038 " stroke="#000000" stroke-width="1" stroke-opacity="1" stroke-miterlimit="10"/><path stroke-linecap="butt" transform="matrix(0.0782916, 0, 0, 0.0782916, 5.492796, 1.074238)" fill-opacity="1" fill="#ffdf2b" fill-rule="nonzero" stroke-linejoin="miter" d="M 333.630684 227.314972 C 329.68909 227.464652 326.446007 227.514546 323.901433 227.514546 C 321.207179 227.514546 317.864309 227.464652 313.972608 227.314972 C 310.031014 227.165291 305.490697 226.965717 300.351657 226.666355 L 300.351657 232.254438 L 318.662606 232.254438 C 318.961968 234.64933 319.261329 237.343584 319.610584 240.287306 C 319.909946 243.231028 320.209307 246.274537 320.458775 249.318047 C 320.65835 252.361556 320.857924 255.355172 321.057499 258.348787 C 321.207179 261.292509 321.257073 263.886976 321.257073 266.132188 L 321.257073 351.749595 L 233.294667 228.312844 C 234.841368 226.766142 236.38807 225.219441 237.884877 223.722633 C 239.880621 221.627102 241.976152 219.531571 244.071683 217.485934 C 244.520725 217.086785 264.128908 197.328922 270.215926 191.042329 C 271.463266 189.745095 273.309329 188.547649 275.604434 187.599671 C 279.246667 186.05297 282.839006 186.651693 285.932408 189.39584 C 287.578897 190.892648 288.476982 192.988179 288.427088 195.233391 C 288.377194 197.328922 287.47911 199.274772 285.932408 200.522112 C 284.585281 201.569877 282.938793 201.969026 281.441985 201.669664 C 280.344326 201.47009 279.496135 200.821473 278.997199 199.923389 C 278.498263 198.925517 278.448369 197.179241 278.947305 196.430837 L 278.997199 196.380943 L 278.997199 196.33105 C 279.396348 195.133604 280.494007 194.784348 281.691453 194.53488 C 281.891027 194.53488 282.539644 194.934029 282.938793 195.133604 C 283.437729 195.432965 283.836877 195.682433 284.186133 195.732327 L 285.084217 195.931901 L 284.635175 195.133604 C 283.836877 193.686689 282.839006 192.788605 281.691453 192.489243 C 280.593794 192.189882 279.346454 192.489243 277.999327 193.337434 C 276.901668 194.085838 276.10337 195.283284 275.804009 196.680305 C 275.454754 198.2769 275.754115 199.973282 276.6522 201.320409 C 277.749859 203.016791 279.496135 204.064557 281.541772 204.363918 C 283.836877 204.66328 286.181876 203.864983 287.978046 202.218494 C 290.223257 200.22275 291.320917 197.279028 291.021555 194.135732 C 290.6723 190.792861 288.72645 187.749352 285.782728 186.003076 C 285.084217 185.603927 284.385707 185.254672 283.637303 184.855523 C 283.437729 184.755736 283.238154 184.655949 282.988686 184.556162 C 283.03858 184.456375 283.088474 184.406481 283.138367 184.356587 C 283.437729 184.007332 283.637303 183.707971 283.836877 183.408609 C 285.633047 180.714355 285.633047 177.87042 283.786984 175.176166 C 282.34007 173.030741 280.144751 171.883189 277.450497 171.933082 C 276.901668 171.933082 276.352838 171.982976 275.804009 172.082763 C 272.960074 172.581699 271.313585 174.67723 271.612947 177.571059 C 271.712734 178.768505 272.361351 179.866164 273.409116 180.664461 C 274.506775 181.562546 275.95369 181.911801 277.300817 181.712227 C 278.797624 181.412865 279.84539 180.864036 280.394219 180.015845 C 280.992943 179.11776 281.142623 177.970207 280.793368 176.423506 L 280.593794 175.37574 C 280.743475 175.525421 280.893155 175.625208 281.042836 175.774889 C 281.841134 176.62308 282.389963 177.770633 282.439857 178.968079 C 282.539644 181.76212 280.992943 183.658077 278.198901 184.157013 C 274.007839 184.855523 270.415501 186.851267 266.922949 190.443606 C 258.391145 199.075198 247.165086 210.550724 236.288282 221.676996 C 226.559032 231.655714 216.480526 241.933795 208.796912 249.767089 L 208.547444 250.016557 L 208.597338 250.016557 L 205.503935 253.060066 L 205.503935 348.606299 C 205.503935 354.244275 205.354254 359.882251 205.15468 365.470333 C 204.905212 371.108309 204.456169 376.746286 203.857446 382.334368 L 185.097455 382.334368 L 185.097455 387.872557 C 190.386176 387.623089 194.976387 387.423515 198.917981 387.273834 C 202.809681 387.124153 206.102658 387.07426 208.796912 387.07426 C 211.341485 387.07426 214.584569 387.124153 218.476269 387.273834 C 222.417863 387.423515 226.95818 387.623089 232.097221 387.872557 L 232.097221 382.334368 L 214.784143 382.334368 C 213.786272 377.195328 213.037868 371.756926 212.489038 366.019163 C 211.940209 360.231506 211.640847 354.443849 211.640847 348.706086 L 211.640847 250.116344 C 212.7884 249.068579 214.834037 247.072835 217.179036 244.727836 L 318.562819 389.119897 L 327.244304 389.119897 L 327.244304 266.182081 C 327.244304 262.290381 327.294198 258.997404 327.344091 256.203363 C 327.443879 253.359428 327.543666 250.764961 327.593559 248.370068 C 327.693347 245.925282 327.843027 243.53039 328.092495 241.03571 C 328.341963 238.54103 328.691218 235.597308 329.140261 232.254438 L 347.201742 232.254438 L 347.201742 226.716249 C 342.062702 226.965717 337.572278 227.165291 333.630684 227.314972 Z M 280.044964 176.373612 C 279.496135 178.119888 278.548156 178.668718 278.298689 178.818398 C 277.35071 179.267441 276.751987 179.267441 275.853902 178.718611 L 275.754115 178.668718 L 275.654328 178.668718 C 275.354966 178.56893 274.70635 177.571059 274.606563 177.17191 L 274.656456 177.17191 L 274.656456 176.972335 C 274.656456 174.777017 277.250923 174.527549 277.799753 174.527549 C 278.697837 174.477656 279.595922 174.727124 280.394219 175.176166 Z M 280.044964 176.373612 " stroke="#000000" stroke-width="1" stroke-opacity="1" stroke-miterlimit="10"/><path stroke-linecap="butt" transform="matrix(0.0782916, 0, 0, 0.0782916, 5.492796, 1.074238)" fill-opacity="1" fill="#ffdf2b" fill-rule="nonzero" stroke-linejoin="miter" d="M 136.351414 277.807289 L 136.101946 278.306225 L 136.600882 278.455906 C 137.698541 278.65548 138.7962 278.755267 139.843965 278.755267 C 145.332261 278.65548 150.171939 275.412396 151.269598 270.572718 L 151.369386 270.123675 L 150.970237 270.073782 C 145.032899 269.175697 139.544604 272.069525 136.351414 277.807289 Z M 139.544604 276.659736 C 142.887475 272.668249 147.178324 271.770164 148.824812 271.670377 C 145.980877 275.412396 141.340773 276.460162 139.544604 276.659736 Z M 139.544604 276.659736 " stroke="#000000" stroke-width="1" stroke-opacity="1" stroke-miterlimit="10"/><path stroke-linecap="butt" transform="matrix(0.0782916, 0, 0, 0.0782916, 5.492796, 1.074238)" fill-opacity="1" fill="#ffdf2b" fill-rule="nonzero" stroke-linejoin="miter" d="M 272.311457 93.849608 C 269.01848 94.049182 266.37412 94.099076 264.228695 94.099076 C 261.93359 94.099076 259.139548 94.049182 255.796678 93.849608 C 252.453807 93.699927 248.562107 93.450459 244.17147 93.101204 L 244.17147 98.639393 L 262.183058 98.639393 C 260.935718 103.479072 259.638484 108.169069 258.19157 112.659493 C 256.744656 117.149916 254.798806 122.737999 252.403913 129.42374 L 221.81914 208.604874 C 220.022971 210.35115 218.127014 212.297 216.280951 214.192957 L 171.42661 98.639393 L 190.386176 98.639393 L 190.386176 93.101204 C 183.999796 93.450459 178.511501 93.699927 173.971184 93.849608 C 169.380973 94.049182 165.439379 94.099076 162.096508 94.099076 C 159.352361 94.099076 155.710128 94.049182 151.169811 93.849608 C 146.629494 93.699927 141.44056 93.450459 135.652903 93.101204 L 135.652903 98.639393 L 147.727153 98.639393 L 200.01564 230.707736 C 198.468938 232.254438 175.318311 255.504852 169.231292 261.741552 C 167.934059 263.088679 166.137889 264.236231 163.842784 265.234103 C 160.150658 266.780805 156.608213 266.132188 153.51481 263.38804 C 151.868321 261.941126 150.920343 259.795701 151.02013 257.600383 C 151.070024 255.504852 151.968109 253.559002 153.51481 252.311662 C 154.812043 251.263897 156.508426 250.814854 158.005233 251.16411 C 159.102893 251.363684 159.951084 252.012301 160.45002 252.910385 C 160.948956 253.908257 160.948956 255.654533 160.499913 256.402937 L 160.45002 256.452831 L 160.45002 256.502724 C 160.050871 257.70017 158.903318 258.049426 157.755766 258.249 C 157.556191 258.298894 156.857681 257.899745 156.458532 257.70017 C 156.00949 257.400809 155.560447 257.151341 155.211192 257.051554 L 154.363001 256.901873 L 154.76215 257.650277 C 155.560447 259.147085 156.558319 260.045169 157.705872 260.344531 C 158.853425 260.593999 160.100764 260.344531 161.397998 259.446446 C 162.545551 258.747936 163.343848 257.55049 163.64321 256.153469 C 163.992465 254.556874 163.693103 252.860492 162.795019 251.513365 C 161.697359 249.816983 159.951084 248.719324 157.905446 248.469856 C 155.610341 248.170494 153.265342 248.968791 151.469173 250.565386 C 149.223961 252.611024 148.126302 255.554746 148.425663 258.648149 C 148.774919 261.99102 150.720769 265.034529 153.614597 266.780805 C 154.313108 267.229847 155.061511 267.579102 155.809915 267.928357 C 156.00949 268.028144 156.209064 268.177825 156.408638 268.277612 C 156.358745 268.327506 156.308851 268.3774 156.258958 268.427293 C 156.00949 268.776548 155.809915 269.07591 155.560447 269.375271 C 153.814172 272.119419 153.814172 274.963354 155.610341 277.607714 C 157.057255 279.803033 159.252573 280.900692 161.996721 280.850798 C 162.495657 280.850798 163.044486 280.800904 163.64321 280.701117 C 166.487144 280.252075 168.083739 278.156544 167.834272 275.212822 C 167.734484 274.065269 167.085868 272.917717 166.038102 272.119419 C 164.890549 271.271228 163.493529 270.872079 162.146402 271.121547 C 160.5997 271.371015 159.601829 271.919845 159.003105 272.768036 C 158.404382 273.666121 158.304595 274.863567 158.65385 276.410268 L 158.853425 277.40814 C 158.703744 277.308353 158.554063 277.158672 158.404382 277.008991 C 157.556191 276.210694 157.057255 275.063141 157.007362 273.865695 C 156.857681 271.02176 158.404382 269.125803 161.248317 268.676761 C 165.439379 267.928357 169.031718 265.932613 172.524269 262.390168 C 181.056074 253.758577 230.899774 202.817217 230.899774 202.817217 L 258.291357 130.521399 C 261.334867 123.087254 263.929333 116.950342 266.074758 112.160557 C 268.170289 107.370772 270.515288 102.880348 273.109755 98.589499 L 283.836877 98.589499 L 283.836877 93.05131 C 279.396348 93.450459 275.554541 93.699927 272.311457 93.849608 Z M 159.402254 276.460162 C 159.951084 274.713886 160.849168 274.115163 161.14853 274.015376 C 162.096508 273.566333 162.695231 273.566333 163.593316 274.115163 L 163.693103 274.165056 L 163.79289 274.165056 C 164.092252 274.264844 164.740869 275.262716 164.840656 275.661864 L 164.790762 275.661864 L 164.790762 275.861439 C 164.740869 278.056757 162.146402 278.306225 161.647466 278.306225 C 160.699488 278.356118 159.801403 278.10665 159.052999 277.607714 Z M 159.402254 276.460162 " stroke="#000000" stroke-width="1" stroke-opacity="1" stroke-miterlimit="10"/><path stroke-linecap="butt" transform="matrix(0.121049, 0, 0, 0.121049, 43.350415, 19.556907)" fill="none" stroke-linejoin="miter" d="M 82.040034 41.319641 C 79.942479 39.028465 77.651303 37.25361 75.231046 36.027347 C 72.81079 34.801084 69.325621 34.187952 64.743268 34.187952 C 60.193186 34.187952 56.772557 34.865624 54.578191 36.188697 C 52.383826 37.511771 51.286643 39.093005 51.286643 40.9324 C 51.286643 44.094868 54.09414 46.321504 59.741405 47.644578 L 81.652793 53.324113 C 89.655774 55.357128 95.69028 58.906838 99.724041 63.973241 C 103.790072 69.039644 105.823087 75.07415 105.823087 82.109029 C 105.823087 88.627586 104.112773 94.307121 100.659873 99.147634 C 97.239244 103.988147 92.301921 107.699207 85.944715 110.345354 C 79.555238 112.991501 72.100848 114.314574 63.549275 114.314574 C 53.86825 114.314574 45.026246 112.73334 37.055535 109.506331 C 29.117094 106.311593 23.598909 102.084212 20.533251 96.888728 C 20.08147 96.017436 19.85558 95.339764 19.85558 94.920253 C 19.85558 94.048961 20.339631 93.242208 21.307733 92.532267 L 34.925709 83.141672 C 35.861542 82.56081 36.765104 82.238109 37.539586 82.238109 C 38.507689 82.238109 39.314441 82.62535 39.927573 83.399832 C 42.928691 87.304513 45.962079 90.04747 49.027737 91.628704 C 52.125665 93.209938 56.223966 93.98442 61.322639 93.98442 C 66.259962 93.98442 70.164643 93.306749 73.00441 91.951405 C 75.876448 90.563791 77.296332 88.692126 77.296332 86.33641 C 77.296332 84.658366 76.58639 83.206212 75.166506 81.979949 C 73.778892 80.753685 71.713607 79.817853 68.97065 79.204721 L 48.898656 74.331938 C 40.992485 72.395733 34.699819 68.749214 30.052927 63.424649 C 25.373764 58.100085 23.050318 51.968769 23.050318 45.030701 C 23.050318 39.286626 24.728362 34.026602 28.052181 29.218359 C 31.40827 24.442386 36.151973 20.666786 42.283289 17.891559 C 48.446875 15.116332 55.578564 13.728718 63.678356 13.728718 C 71.616797 13.728718 78.974376 15.019521 85.751094 17.633398 C 92.495542 20.215005 97.400595 23.667904 100.401713 27.959826 C 101.014844 28.766578 101.305275 29.50879 101.305275 30.218732 C 101.305275 30.831863 101.014844 31.412725 100.401713 31.929046 L 86.009255 42.384554 C 85.557473 42.739525 85.073422 42.900875 84.557101 42.900875 C 83.943969 42.900875 83.104947 42.384554 82.040034 41.319641 Z M 113.083856 18.085179 C 113.083856 17.181617 113.342017 16.471675 113.922879 15.923084 C 114.50374 15.342222 115.310492 15.051791 116.375405 15.051791 L 195.308034 15.051791 C 196.372947 15.051791 197.179699 15.342222 197.760561 15.923084 C 198.341422 16.471675 198.631853 17.181617 198.631853 18.085179 L 198.631853 33.768441 C 198.631853 35.446485 197.66375 36.285508 195.727545 36.285508 L 172.364003 36.285508 C 171.299091 36.285508 170.782769 36.737289 170.782769 37.608581 L 170.782769 110.087193 C 170.782769 111.055296 170.556879 111.797508 170.105097 112.281559 C 169.653316 112.76561 169.040185 112.991501 168.265702 112.991501 L 143.191846 112.991501 C 141.578342 112.991501 140.80386 112.120208 140.80386 110.345354 L 140.80386 38.157173 C 140.80386 36.898639 140.319808 36.285508 139.351706 36.285508 L 116.117244 36.285508 C 114.084229 36.285508 113.083856 35.446485 113.083856 33.768441 Z M 207.990178 112.991501 C 207.280236 112.991501 206.699374 112.76561 206.247593 112.281559 C 205.828082 111.797508 205.602191 111.119836 205.602191 110.216273 C 205.602191 109.603142 205.731272 108.8932 206.021702 108.086448 L 237.969087 18.085179 C 238.388598 16.923456 238.872649 16.148974 239.421241 15.729463 C 239.937562 15.277682 240.776584 15.051791 241.938308 15.051791 L 267.947996 15.051791 C 268.980639 15.051791 269.916472 15.374492 270.755494 16.052164 C 271.594516 16.697566 272.239918 17.536588 272.659429 18.601501 L 304.348653 108.505959 C 304.542273 109.215901 304.606813 109.764492 304.606813 110.087193 C 304.606813 110.893945 304.445463 111.571617 304.090492 112.152478 C 303.767791 112.73334 303.2192 112.991501 302.509258 112.991501 L 276.628649 112.991501 C 275.144225 112.991501 274.176123 112.249289 273.724342 110.732595 L 268.593398 95.565655 C 268.335237 94.952523 268.077077 94.565282 267.851186 94.339391 C 267.625296 94.113501 267.205784 93.98442 266.624923 93.98442 L 238.614489 93.98442 C 237.549576 93.98442 236.904174 94.468472 236.646014 95.436574 L 231.224639 111.023026 C 230.676048 112.346099 229.643405 112.991501 228.062171 112.991501 Z M 260.009555 71.556711 C 260.977658 71.556711 261.461709 71.10493 261.461709 70.233638 C 261.461709 70.072287 261.364899 69.620506 261.203549 68.910564 L 253.265108 46.353774 C 253.103757 45.901993 252.813326 45.676102 252.458355 45.676102 C 252.103384 45.676102 251.845224 45.901993 251.683873 46.353774 L 243.616352 68.781484 C 243.455002 69.136455 243.358191 69.555966 243.358191 70.104557 C 243.358191 71.07266 243.906783 71.556711 244.939425 71.556711 Z M 404.547268 15.051791 C 406.128502 15.051791 406.935254 15.568113 406.935254 16.633026 C 406.935254 16.891186 406.773904 17.375238 406.418933 18.085179 L 375.504191 67.974732 C 374.92333 68.846024 374.536089 69.846396 374.374738 70.911309 C 374.245658 71.943952 374.181118 73.880157 374.181118 76.719925 L 374.181118 109.151361 C 374.181118 110.571244 373.826147 111.571617 373.116205 112.152478 C 372.438533 112.73334 371.34135 112.991501 369.824656 112.991501 L 347.655107 112.991501 C 346.364304 112.991501 345.460742 112.73334 344.94442 112.217019 C 344.460369 111.700697 344.202208 110.861675 344.202208 109.699952 L 344.202208 74.97734 C 344.202208 73.751077 344.073128 72.750704 343.814967 72.008492 C 343.556807 71.23401 343.072755 70.298178 342.362813 69.168725 L 311.512612 18.730581 C 311.125371 18.11745 310.96402 17.536588 310.96402 17.020267 C 310.96402 15.697193 311.932123 15.051791 313.836058 15.051791 L 340.394338 15.051791 C 341.620601 15.051791 342.524164 15.245412 343.072755 15.600383 C 343.653617 15.955354 344.266748 16.697566 344.87988 17.827019 L 361.144003 47.128256 C 361.563514 47.999549 361.918485 48.45133 362.208916 48.45133 C 362.628427 48.45133 363.015668 48.031819 363.370639 47.257337 L 379.344331 17.827019 C 379.892923 16.697566 380.441514 15.955354 381.054646 15.600383 C 381.667777 15.245412 382.60361 15.051791 383.829873 15.051791 Z M 404.547268 15.051791 " stroke="#ffdf2b" stroke-width="4.9509" stroke-opacity="1" stroke-miterlimit="4"/><g fill="#ffdf2b" fill-opacity="1"><g transform="translate(44.680809, 19.828637)"><g><path d="M 4.5625 -4.59375 C 4.488281 -4.59375 4.425781 -4.566406 4.375 -4.515625 C 4.332031 -4.472656 4.3125 -4.421875 4.3125 -4.359375 L 4.3125 -0.453125 C 4.3125 -0.285156 4.269531 -0.164062 4.1875 -0.09375 C 4.101562 -0.03125 3.976562 0 3.8125 0 L 1.21875 0 C 1.0625 0 0.953125 -0.03125 0.890625 -0.09375 C 0.828125 -0.15625 0.796875 -0.253906 0.796875 -0.390625 L 0.796875 -11.125 C 0.796875 -11.238281 0.820312 -11.328125 0.875 -11.390625 C 0.925781 -11.453125 1 -11.484375 1.09375 -11.484375 L 4.03125 -11.484375 C 4.113281 -11.484375 4.179688 -11.453125 4.234375 -11.390625 C 4.285156 -11.335938 4.3125 -11.257812 4.3125 -11.15625 L 4.3125 -7.5625 C 4.3125 -7.351562 4.40625 -7.25 4.59375 -7.25 L 7.1875 -7.25 C 7.375 -7.25 7.46875 -7.351562 7.46875 -7.5625 L 7.46875 -11.15625 C 7.46875 -11.257812 7.492188 -11.335938 7.546875 -11.390625 C 7.597656 -11.453125 7.664062 -11.484375 7.75 -11.484375 L 10.6875 -11.484375 C 10.78125 -11.484375 10.851562 -11.453125 10.90625 -11.390625 C 10.957031 -11.328125 10.984375 -11.238281 10.984375 -11.125 L 10.984375 -0.390625 C 10.984375 -0.253906 10.953125 -0.15625 10.890625 -0.09375 C 10.828125 -0.03125 10.71875 0 10.5625 0 L 7.984375 0 C 7.804688 0 7.675781 -0.03125 7.59375 -0.09375 C 7.507812 -0.164062 7.46875 -0.285156 7.46875 -0.453125 L 7.46875 -4.359375 C 7.46875 -4.421875 7.441406 -4.472656 7.390625 -4.515625 C 7.347656 -4.566406 7.289062 -4.59375 7.21875 -4.59375 Z M 4.5625 -4.59375 "/></g></g></g><g fill="#ffdf2b" fill-opacity="1"><g transform="translate(56.470585, 19.828637)"><g><path d="M 6.046875 0.15625 C 4.921875 0.15625 3.9375 -0.0820312 3.09375 -0.5625 C 2.257812 -1.039062 1.613281 -1.71875 1.15625 -2.59375 C 0.707031 -3.476562 0.484375 -4.515625 0.484375 -5.703125 C 0.484375 -6.890625 0.710938 -7.925781 1.171875 -8.8125 C 1.628906 -9.707031 2.273438 -10.398438 3.109375 -10.890625 C 3.953125 -11.378906 4.929688 -11.625 6.046875 -11.625 C 7.148438 -11.625 8.117188 -11.378906 8.953125 -10.890625 C 9.785156 -10.398438 10.429688 -9.707031 10.890625 -8.8125 C 11.359375 -7.925781 11.59375 -6.890625 11.59375 -5.703125 C 11.59375 -4.523438 11.363281 -3.492188 10.90625 -2.609375 C 10.445312 -1.722656 9.800781 -1.039062 8.96875 -0.5625 C 8.132812 -0.0820312 7.160156 0.15625 6.046875 0.15625 Z M 6.046875 -2.265625 C 6.503906 -2.265625 6.863281 -2.375 7.125 -2.59375 C 7.394531 -2.8125 7.59375 -3.164062 7.71875 -3.65625 C 7.84375 -4.15625 7.90625 -4.820312 7.90625 -5.65625 C 7.90625 -6.9375 7.757812 -7.851562 7.46875 -8.40625 C 7.175781 -8.96875 6.703125 -9.25 6.046875 -9.25 C 5.378906 -9.25 4.894531 -8.96875 4.59375 -8.40625 C 4.300781 -7.851562 4.15625 -6.9375 4.15625 -5.65625 C 4.15625 -4.820312 4.21875 -4.15625 4.34375 -3.65625 C 4.46875 -3.164062 4.664062 -2.8125 4.9375 -2.59375 C 5.21875 -2.375 5.585938 -2.265625 6.046875 -2.265625 Z M 6.046875 -2.265625 "/></g></g></g><g fill="#ffdf2b" fill-opacity="1"><g transform="translate(68.538859, 19.828637)"><g><path d="M 1.203125 0 C 1.078125 0 0.976562 -0.0351562 0.90625 -0.109375 C 0.832031 -0.191406 0.796875 -0.300781 0.796875 -0.4375 L 0.796875 -11.125 C 0.796875 -11.25 0.820312 -11.335938 0.875 -11.390625 C 0.925781 -11.453125 1.007812 -11.484375 1.125 -11.484375 L 5.453125 -11.484375 C 5.585938 -11.484375 5.679688 -11.460938 5.734375 -11.421875 C 5.796875 -11.390625 5.847656 -11.316406 5.890625 -11.203125 L 7.5 -6.28125 C 7.53125 -6.195312 7.566406 -6.15625 7.609375 -6.15625 C 7.640625 -6.15625 7.671875 -6.195312 7.703125 -6.28125 L 9.140625 -11.03125 C 9.222656 -11.332031 9.363281 -11.484375 9.5625 -11.484375 L 14.03125 -11.484375 C 14.21875 -11.484375 14.3125 -11.375 14.3125 -11.15625 L 14.3125 -0.453125 C 14.3125 -0.285156 14.269531 -0.164062 14.1875 -0.09375 C 14.113281 -0.03125 13.988281 0 13.8125 0 L 11.203125 0 C 11.046875 0 10.9375 -0.03125 10.875 -0.09375 C 10.820312 -0.15625 10.796875 -0.253906 10.796875 -0.390625 L 10.796875 -7.328125 C 10.796875 -7.410156 10.773438 -7.453125 10.734375 -7.453125 C 10.679688 -7.453125 10.640625 -7.40625 10.609375 -7.3125 L 8.390625 -0.28125 C 8.316406 -0.09375 8.191406 0 8.015625 0 L 6.390625 0 C 6.203125 0 6.078125 -0.09375 6.015625 -0.28125 L 3.796875 -7.1875 C 3.765625 -7.289062 3.726562 -7.34375 3.6875 -7.34375 C 3.632812 -7.34375 3.609375 -7.285156 3.609375 -7.171875 L 3.609375 -0.34375 C 3.609375 -0.207031 3.585938 -0.113281 3.546875 -0.0625 C 3.503906 -0.0195312 3.410156 0 3.265625 0 Z M 1.203125 0 "/></g></g></g><g fill="#ffdf2b" fill-opacity="1"><g transform="translate(83.655147, 19.828637)"><g><path d="M 0.796875 -11.125 C 0.796875 -11.363281 0.894531 -11.484375 1.09375 -11.484375 L 9.453125 -11.484375 C 9.640625 -11.484375 9.734375 -11.375 9.734375 -11.15625 L 9.71875 -9.359375 C 9.71875 -9.078125 9.582031 -8.9375 9.3125 -8.9375 L 4.671875 -8.9375 C 4.429688 -8.9375 4.3125 -8.835938 4.3125 -8.640625 L 4.3125 -7.328125 C 4.3125 -7.222656 4.335938 -7.140625 4.390625 -7.078125 C 4.441406 -7.023438 4.507812 -7 4.59375 -7 L 7.375 -7 C 7.59375 -7 7.703125 -6.898438 7.703125 -6.703125 L 7.703125 -4.78125 C 7.703125 -4.601562 7.609375 -4.515625 7.421875 -4.515625 L 4.5625 -4.515625 C 4.488281 -4.515625 4.425781 -4.492188 4.375 -4.453125 C 4.332031 -4.410156 4.3125 -4.359375 4.3125 -4.296875 L 4.3125 -2.75 C 4.3125 -2.664062 4.320312 -2.609375 4.34375 -2.578125 C 4.375 -2.546875 4.425781 -2.53125 4.5 -2.53125 L 9.53125 -2.53125 C 9.757812 -2.53125 9.875 -2.4375 9.875 -2.25 L 9.875 -0.34375 C 9.875 -0.238281 9.84375 -0.15625 9.78125 -0.09375 C 9.71875 -0.03125 9.625 0 9.5 0 L 1.21875 0 C 1.0625 0 0.953125 -0.03125 0.890625 -0.09375 C 0.828125 -0.15625 0.796875 -0.253906 0.796875 -0.390625 Z M 0.796875 -11.125 "/></g></g></g></svg>